<mxfile host="app.diagrams.net" modified="2023-12-27T19:09:48.989Z" agent="Mozilla/5.0 (Macintosh; Intel Mac OS X 10_15_7) AppleWebKit/537.36 (KHTML, like Gecko) Chrome/120.0.0.0 Safari/537.36" version="22.1.15" etag="jOstkU9SzjYTsYGOdGQO" type="github">
  <diagram name="페이지-1" id="U2x-U9KUaLgfJMPoM7gb">
    <mxGraphModel>
      <root>
        <mxCell id="0" />
        <mxCell id="1" parent="0" />
      </root>
    </mxGraphModel>
  </diagram>
</mxfile>
